<svg width="135" height="104" viewBox="0 0 135 104" fill="none" xmlns="http://www.w3.org/2000/svg">
<g clip-path="url(#clip0_229_284)">
<path d="M135 88.248H0V88.3155H135V88.248Z" fill="#EBEBEB"/>
<path d="M121.473 92.5923H112.531V92.6598H121.473V92.5923Z" fill="#EBEBEB"/>
<path d="M89.4294 93.3267H87.0831V93.3942H89.4294V93.3267Z" fill="#EBEBEB"/>
<path d="M112.261 90.0867H107.079V90.1542H112.261V90.0867Z" fill="#EBEBEB"/>
<path d="M25.8255 90.5403H14.1642V90.6078H25.8255V90.5403Z" fill="#EBEBEB"/>
<path d="M29.9403 90.5403H28.2312V90.6078H29.9403V90.5403Z" fill="#EBEBEB"/>
<path d="M60.7905 91.6797H35.4969V91.7472H60.7905V91.6797Z" fill="#EBEBEB"/>
<path d="M63.99 76.206H11.8557C11.4473 76.2053 11.0559 76.0425 10.7673 75.7535C10.4788 75.4644 10.3167 75.0727 10.3167 74.6643V1.37818C10.3203 0.972102 10.4839 0.58383 10.7721 0.297695C11.0602 0.0115593 11.4496 -0.149329 11.8557 -0.150024H63.99C64.3989 -0.150024 64.791 0.0124043 65.0802 0.301529C65.3693 0.590654 65.5317 0.982791 65.5317 1.39168V74.6643C65.5317 75.0732 65.3693 75.4653 65.0802 75.7544C64.791 76.0436 64.3989 76.206 63.99 76.206V76.206ZM11.8557 -0.0960242C11.4652 -0.095309 11.0909 0.0603232 10.815 0.336712C10.5392 0.6131 10.3842 0.987661 10.3842 1.37818V74.6643C10.3842 75.0548 10.5392 75.4294 10.815 75.7057C11.0909 75.9821 11.4652 76.1378 11.8557 76.1385H63.99C64.3808 76.1378 64.7553 75.9822 65.0316 75.7059C65.308 75.4296 65.4635 75.055 65.4642 74.6643V1.37818C65.4635 0.987413 65.308 0.612859 65.0316 0.336547C64.7553 0.0602355 64.3808 -0.0953105 63.99 -0.0960242H11.8557Z" fill="#EBEBEB"/>
<path d="M122.394 76.206H70.2567C69.848 76.2053 69.4563 76.0426 69.1673 75.7536C68.8784 75.4647 68.7157 75.0729 68.715 74.6643V1.37818C68.7193 0.971856 68.8835 0.583586 69.1721 0.297526C69.4607 0.0114649 69.8504 -0.149336 70.2567 -0.150024H122.394C122.799 -0.148619 123.188 0.0125829 123.476 0.298642C123.763 0.584701 123.926 0.972569 123.93 1.37818V74.6643C123.93 75.0722 123.768 75.4635 123.48 75.7525C123.192 76.0415 122.802 76.2045 122.394 76.206V76.206ZM70.2567 -0.0960242C69.8659 -0.0953105 69.4914 0.0602355 69.2151 0.336547C68.9388 0.612859 68.7832 0.987413 68.7825 1.37818V74.6643C68.7832 75.055 68.9388 75.4296 69.2151 75.7059C69.4914 75.9822 69.8659 76.1378 70.2567 76.1385H122.394C122.784 76.1378 123.159 75.9822 123.435 75.7059C123.712 75.4296 123.867 75.055 123.868 74.6643V1.37818C123.867 0.987413 123.712 0.612859 123.435 0.336547C123.159 0.0602355 122.784 -0.0953105 122.394 -0.0960242H70.2567Z" fill="#EBEBEB"/>
<path d="M16.4322 38.1603H36.2286L36.2286 5.42818H16.4322L16.4322 38.1603Z" fill="#F5F5F5"/>
<path d="M16.4295 5.42548H16.038V38.1576H16.4295V5.42548Z" fill="#E0E0E0"/>
<path d="M18.441 36.7185H34.2225L34.2225 6.8673L18.441 6.8673L18.441 36.7185Z" fill="#FAFAFA"/>
<path d="M40.8996 49.6488H60.696L60.696 16.9167H40.8996V49.6488Z" fill="#F5F5F5"/>
<path d="M40.8996 16.9194H40.5081V49.6515H40.8996V16.9194Z" fill="#E0E0E0"/>
<path d="M42.9084 48.2097H58.6899L58.6899 18.3585L42.9084 18.3585V48.2097Z" fill="#FAFAFA"/>
<path d="M78.5349 46.4412H72.5895V86.4444H78.5349V46.4412Z" fill="#F0F0F0"/>
<path d="M118.8 86.4444H73.7316V88.248H118.8V86.4444Z" fill="#F0F0F0"/>
<path d="M78.5349 86.4444H119.942V46.4412L78.5349 46.4412V86.4444Z" fill="#F5F5F5"/>
<path d="M77.9193 44.8671H71.8416V46.4412H77.9193V44.8671Z" fill="#F0F0F0"/>
<path d="M77.9193 46.4412L120.69 46.4412V44.8671L77.9193 44.8671V46.4412Z" fill="#FAFAFA"/>
<path d="M117.774 65.3277H80.703V49.7729H117.774V65.3277ZM81.054 64.9874H117.434V50.1132H81.0432L81.054 64.9874Z" fill="#E0E0E0"/>
<path d="M117.774 83.1126H80.703V67.7739H117.774V83.1126ZM81.054 82.7724H117.434V68.1141H81.0432L81.054 82.7724Z" fill="#E0E0E0"/>
<path d="M106.456 52.832H92.0214C91.8519 52.8313 91.6896 52.7637 91.5697 52.6438C91.4499 52.524 91.3822 52.3616 91.3815 52.1921V52.1921C91.3822 52.0227 91.4499 51.8603 91.5697 51.7405C91.6896 51.6206 91.8519 51.553 92.0214 51.5522H106.456C106.625 51.553 106.787 51.6206 106.907 51.7405C107.027 51.8603 107.095 52.0227 107.095 52.1921V52.1921C107.095 52.3616 107.027 52.524 106.907 52.6438C106.787 52.7637 106.625 52.8313 106.456 52.832V52.832Z" fill="#E0E0E0"/>
<path d="M106.458 69.5532H92.0214C91.668 69.5532 91.3815 69.8397 91.3815 70.1931C91.3815 70.5465 91.668 70.833 92.0214 70.833H106.458C106.812 70.833 107.098 70.5465 107.098 70.1931C107.098 69.8397 106.812 69.5532 106.458 69.5532Z" fill="#E0E0E0"/>
<path d="M97.3107 44.8509H114.483L115.876 29.5392H98.7039L97.3107 44.8509Z" fill="#E6E6E6"/>
<path d="M96.7275 44.8509H113.9L115.293 29.5392H98.1207L96.7275 44.8509Z" fill="#F0F0F0"/>
<path d="M112.358 43.1553L113.443 31.2348H99.6624L98.577 43.1553H112.358Z" fill="white"/>
<path d="M93.3336 33.6702L92.3157 44.8509H100.545L101.563 33.6702H93.3336Z" fill="#E6E6E6"/>
<path d="M92.907 33.6702L91.8891 44.8509H100.119L101.137 33.6702H92.907Z" fill="#F0F0F0"/>
<path d="M94.0329 34.9068L93.2391 43.6143H98.9955L99.7866 34.9068H94.0329Z" fill="white"/>
<path d="M80.0064 15.7044C79.758 15.0749 79.3849 14.5021 78.9095 14.0204C78.4341 13.5387 77.8663 13.1581 77.2401 12.9014C76.6139 12.6446 75.9423 12.5171 75.2657 12.5265C74.589 12.5358 73.9211 12.6819 73.3023 12.9558C71.0019 13.971 69.7545 16.9221 70.6212 19.2792C71.054 20.4693 71.9226 21.4507 73.0512 22.0251C73.5207 22.25 73.9188 22.6004 74.2014 23.0376L74.9142 24.177C75.1481 24.5499 75.5048 24.8295 75.9228 24.9675C76.3408 25.1055 76.7939 25.0933 77.2038 24.933L79.002 24.2229C79.411 24.0599 79.7503 23.7592 79.9613 23.3728C80.1723 22.9863 80.2417 22.5383 80.1576 22.1061L79.8876 20.7399C79.801 20.2562 79.8506 19.758 80.0307 19.3008C80.4694 18.1406 80.4608 16.8586 80.0064 15.7044Z" fill="#407BFF"/>
<path d="M77.4414 27.2064C77.3262 27.2061 77.2122 27.1822 77.1066 27.1362C77.0048 27.0931 76.9127 27.0301 76.8357 26.9508C76.7587 26.8715 76.6984 26.7775 76.6584 26.6745C76.5795 26.4685 76.5849 26.2397 76.6733 26.0376C76.7617 25.8356 76.9261 25.6764 77.1309 25.5945L79.515 24.6522C79.721 24.5726 79.95 24.5776 80.1523 24.6661C80.3546 24.7546 80.5137 24.9194 80.595 25.1247C80.6378 25.2264 80.6598 25.3356 80.6598 25.446C80.6598 25.5563 80.6378 25.6656 80.595 25.7673C80.5062 25.9717 80.3403 26.1328 80.1333 26.2155L77.76 27.147C77.6589 27.1881 77.5505 27.2083 77.4414 27.2064ZM79.8228 24.8547C79.7515 24.8543 79.6809 24.8681 79.6149 24.8952L77.22 25.8375C77.1148 25.8781 77.0241 25.9491 76.9595 26.0415C76.8948 26.134 76.8592 26.2435 76.8572 26.3563C76.8552 26.469 76.8868 26.5798 76.9481 26.6745C77.0093 26.7692 77.0974 26.8434 77.2011 26.8878C77.2703 26.9172 77.3446 26.9324 77.4198 26.9324C77.495 26.9324 77.5693 26.9172 77.6385 26.8878L80.0226 25.9482C80.092 25.9204 80.1552 25.8792 80.2085 25.8268C80.2618 25.7744 80.3041 25.712 80.3331 25.6431C80.3632 25.5746 80.3788 25.5006 80.3788 25.4257C80.3788 25.3509 80.3632 25.2769 80.3331 25.2084C80.2901 25.1007 80.2155 25.0085 80.1191 24.9439C80.0227 24.8793 79.9091 24.8454 79.7931 24.8466L79.8228 24.8547Z" fill="#263238"/>
<path d="M78.6564 28.659C78.5841 28.6582 78.5126 28.6435 78.4458 28.6158C78.3225 28.5571 78.226 28.4539 78.1758 28.3269L78.1353 28.2216C78.1099 28.1578 78.0974 28.0896 78.0985 28.0209C78.0996 27.9523 78.1142 27.8845 78.1416 27.8216C78.1689 27.7586 78.2084 27.7016 78.2579 27.654C78.3073 27.6063 78.3657 27.5689 78.4296 27.5439L79.9173 26.9553C80.0468 26.9082 80.1895 26.9125 80.316 26.9672C80.4425 27.0219 80.5432 27.123 80.5977 27.2496L80.6382 27.3549C80.6879 27.4839 80.6849 27.6272 80.6299 27.754C80.5748 27.8808 80.4721 27.9809 80.3439 28.0326L78.84 28.6212C78.7816 28.645 78.7194 28.6578 78.6564 28.659ZM80.1009 27.1875C80.0694 27.1884 80.0383 27.1948 80.0091 27.2064L78.5214 27.795C78.4905 27.8069 78.4622 27.8249 78.4382 27.8478C78.4143 27.8707 78.3951 27.8981 78.3818 27.9285C78.3685 27.9589 78.3613 27.9916 78.3607 28.0247C78.3601 28.0579 78.3661 28.0908 78.3783 28.1217L78.4188 28.227C78.431 28.258 78.4492 28.2863 78.4724 28.3103C78.4956 28.3343 78.5232 28.3535 78.5538 28.3668C78.5844 28.3801 78.6173 28.3872 78.6507 28.3878C78.684 28.3884 78.7172 28.3823 78.7482 28.3701L80.2359 27.7815C80.267 27.7693 80.2954 27.7511 80.3195 27.728C80.3436 27.7048 80.3629 27.6771 80.3763 27.6465C80.389 27.6161 80.3955 27.5835 80.3955 27.5506C80.3955 27.5177 80.389 27.4851 80.3763 27.4548L80.3358 27.3495C80.3157 27.3032 80.283 27.2635 80.2415 27.2349C80.2 27.2063 80.1513 27.1898 80.1009 27.1875Z" fill="#263238"/>
<path d="M74.2257 20.4942C74.0416 20.4945 73.8609 20.4446 73.703 20.3499C73.5451 20.2552 73.4161 20.1193 73.3297 19.9567C73.2433 19.7941 73.2029 19.611 73.2128 19.4271C73.2228 19.2433 73.2826 19.0656 73.386 18.9133C73.4893 18.7609 73.6323 18.6396 73.7994 18.5624C73.9666 18.4853 74.1516 18.4551 74.3346 18.4753C74.5176 18.4954 74.6917 18.565 74.838 18.6767C74.9844 18.7884 75.0976 18.9379 75.1653 19.1091L75.5379 20.0514L74.5956 20.4213C74.4781 20.469 74.3525 20.4938 74.2257 20.4942ZM74.2257 18.7392C74.1159 18.738 74.0072 18.7612 73.9074 18.8072C73.8076 18.8531 73.7193 18.9206 73.6487 19.0047C73.5782 19.0889 73.5272 19.1877 73.4994 19.294C73.4717 19.4003 73.4678 19.5114 73.4882 19.6193C73.5086 19.7272 73.5526 19.8293 73.6172 19.9182C73.6818 20.007 73.7653 20.0804 73.8616 20.1331C73.958 20.1858 74.0649 20.2165 74.1745 20.2229C74.2842 20.2293 74.3939 20.2113 74.4957 20.1702L75.1869 19.9002L74.9169 19.2117C74.861 19.0739 74.765 18.9562 74.6412 18.8738C74.5174 18.7915 74.3717 18.7483 74.223 18.75L74.2257 18.7392Z" fill="white"/>
<path d="M77.2119 25.0248L75.1896 19.8975L77.0499 19.1631L79.0722 24.2904L78.8211 24.3903L76.896 19.5141L75.5379 20.0514L77.463 24.9249L77.2119 25.0248Z" fill="white"/>
<path d="M76.896 19.5141L76.5261 18.5718C76.4524 18.3855 76.4356 18.1815 76.4779 17.9857C76.5202 17.7899 76.6196 17.611 76.7635 17.4717C76.9075 17.3323 77.0895 17.2389 77.2867 17.2031C77.4838 17.1673 77.6871 17.1907 77.8708 17.2705C78.0546 17.3503 78.2106 17.4828 78.319 17.6513C78.4274 17.8197 78.4834 18.0166 78.48 18.2169C78.4765 18.4172 78.4137 18.6119 78.2994 18.7765C78.1852 18.9411 78.0248 19.0681 77.8383 19.1415L76.896 19.5141ZM77.4657 17.4567C77.3732 17.4579 77.2816 17.4762 77.1957 17.5107C77.1049 17.5464 77.0221 17.5997 76.952 17.6676C76.8819 17.7354 76.8259 17.8165 76.7872 17.9061C76.7486 17.9957 76.728 18.092 76.7268 18.1896C76.7255 18.2872 76.7436 18.384 76.7799 18.4746L77.0499 19.1631L77.7384 18.8931C77.8994 18.8299 78.0332 18.7126 78.1169 18.5613C78.2006 18.4101 78.2289 18.2343 78.1969 18.0644C78.1649 17.8946 78.0746 17.7412 77.9416 17.6307C77.8087 17.5202 77.6413 17.4596 77.4684 17.4594L77.4657 17.4567Z" fill="white"/>
<path d="M81.0891 32.3823C80.0752 32.3836 79.0629 32.3015 78.0624 32.1366L78.1083 31.8666C79.09 32.0286 80.0833 32.1099 81.0783 32.1096L81.0891 32.3823Z" fill="#407BFF"/>
<path d="M86.67 35.1795L86.8131 34.8879C87.311 33.7793 87.4112 32.5329 87.0966 31.359C86.0461 31.7355 84.9607 32.0069 83.8566 32.169L83.8161 31.899C84.9478 31.7297 86.0589 31.4438 87.1317 31.0458L87.2667 30.9972L87.3072 31.1322C87.6499 32.3038 87.6054 33.5547 87.1803 34.6989C90.4986 33.3786 93.9627 28.6914 93.9627 23.1078C93.9627 18.1506 88.182 14.1168 81.0756 14.1168C73.9692 14.1168 68.1912 18.1506 68.1912 23.1078C68.1912 26.7123 71.2611 29.9604 76.0212 31.3806L75.9429 31.6506C71.0829 30.1953 67.9293 26.8473 67.9293 23.1186C67.9293 18.0129 73.8315 13.8576 81.0837 13.8576C88.3359 13.8576 94.2408 18.0129 94.2408 23.1186C94.2408 28.9884 90.4608 33.8943 86.9778 35.0742L86.67 35.1795Z" fill="#407BFF"/>
<path d="M94.1655 16.1375L85.1712 17.7445C84.5253 17.8599 84.0952 18.477 84.2106 19.1229L85.168 24.4813C85.2834 25.1271 85.9005 25.5572 86.5464 25.4418L95.5408 23.8348C96.1867 23.7194 96.6167 23.1022 96.5013 22.4564L95.544 17.098C95.4286 16.4521 94.8114 16.0221 94.1655 16.1375Z" fill="#407BFF"/>
<path d="M92.0052 20.5023L88.8192 19.3521L89.4159 22.6839L92.0052 20.5023Z" fill="white"/>
<path d="M58.1202 65.1009H35.181C34.7053 65.1009 34.3197 65.4865 34.3197 65.9622V67.1853C34.3197 67.661 34.7053 68.0466 35.181 68.0466H58.1202C58.5959 68.0466 58.9815 67.661 58.9815 67.1853V65.9622C58.9815 65.4865 58.5959 65.1009 58.1202 65.1009Z" fill="#407BFF"/>
<path d="M57.861 95.7648H58.5441L57.7584 68.0466H56.8107L57.861 95.7648Z" fill="#407BFF"/>
<path opacity="0.3" d="M57.861 95.7648H58.5441L57.7584 68.0466H56.8107L57.861 95.7648Z" fill="white"/>
<path d="M51.5619 95.7648H50.8788L51.6672 68.0466H52.6122L51.5619 95.7648Z" fill="#407BFF"/>
<path opacity="0.3" d="M51.5619 95.7648H50.8788L51.6672 68.0466H52.6122L51.5619 95.7648Z" fill="white"/>
<path d="M41.7393 95.7648H42.4251L41.6367 68.0466H40.689L41.7393 95.7648Z" fill="#407BFF"/>
<path opacity="0.3" d="M41.7393 95.7648H42.4251L41.6367 68.0466H40.689L41.7393 95.7648Z" fill="white"/>
<path d="M35.4429 95.7648H34.7571L35.5455 68.0466H36.4905L35.4429 95.7648Z" fill="#407BFF"/>
<path opacity="0.3" d="M35.4429 95.7648H34.7571L35.5455 68.0466H36.4905L35.4429 95.7648Z" fill="white"/>
<path d="M65.1537 88.7205L67.5891 87.897L65.5857 82.2108L63.153 83.0343L65.1537 88.7205Z" fill="#FFC3BD"/>
<path d="M67.4082 86.9574L64.7406 88.14C64.7185 88.1477 64.6984 88.1602 64.6816 88.1764C64.6648 88.1927 64.6517 88.2124 64.6432 88.2342C64.6347 88.256 64.6311 88.2794 64.6325 88.3028C64.634 88.3261 64.6404 88.3489 64.6515 88.3695L65.664 90.4269C65.7274 90.5347 65.8275 90.6162 65.946 90.6563C66.0644 90.6965 66.1934 90.6927 66.3093 90.6456C67.23 90.2217 67.6431 89.976 68.8176 89.4603C69.5412 89.1444 70.9965 88.5801 71.8983 87.9996C72.8001 87.4191 72.0927 86.5821 71.6499 86.7495C70.5996 87.1491 68.8527 87.1329 67.8969 86.9277C67.7349 86.887 67.5642 86.8973 67.4082 86.9574Z" fill="#263238"/>
<path opacity="0.2" d="M63.153 83.037L65.5884 82.2108L66.7305 85.4643L64.2546 86.1717L63.153 83.037Z" fill="black"/>
<path d="M47.9034 57.4113C47.9034 57.4113 60.0534 59.6037 61.0335 63.5943C62.9586 71.4837 67.3002 83.8227 67.3002 83.8227L62.6778 85.1727C62.6778 85.1727 56.0682 71.0219 55.2366 66.2592C48.4191 66.2592 40.1166 66.7992 39.0366 63.9156C38.0889 61.356 38.4264 57.4221 38.4264 57.4221L47.9034 57.4113Z" fill="#263238"/>
<path d="M62.424 85.98L67.824 84.198L67.3623 81.7599L61.4736 83.8335L62.424 85.98Z" fill="#407BFF"/>
<path d="M54.5697 89.5845L57.2589 89.7897L55.6794 83.1531L53.1711 83.7201L54.5697 89.5845Z" fill="#FFC3BD"/>
<path d="M57.1914 89.1417L54.2943 88.8204C54.271 88.8161 54.247 88.8169 54.2241 88.8227C54.2011 88.8286 54.1796 88.8393 54.1612 88.8541C54.1427 88.869 54.1277 88.8877 54.1171 88.9089C54.1066 88.9301 54.1007 88.9533 54.0999 88.977L53.9487 91.2666C53.9538 91.3905 54.0015 91.5088 54.0836 91.6018C54.1657 91.6947 54.2773 91.7565 54.3996 91.7769C55.4067 91.8714 55.89 91.8633 57.1644 92.0037C57.9474 92.0901 59.4918 92.3304 60.5637 92.2737C61.6356 92.217 61.4412 91.1397 60.9714 91.0668C59.8617 90.8859 58.3605 90.0003 57.6342 89.3442C57.5116 89.2318 57.3566 89.161 57.1914 89.1417Z" fill="#263238"/>
<path opacity="0.2" d="M53.1711 83.7228L55.6794 83.1558L56.4759 86.5092L53.9406 86.9547L53.1711 83.7228Z" fill="black"/>
<path d="M41.58 57.4113C41.58 57.4113 56.3517 59.6226 55.674 65.2143C54.6993 73.2765 57.2022 84.9378 57.2022 84.9378L52.4637 85.7856C52.4637 85.7856 48.9807 71.292 48.9537 66.4563C44.1477 66.4563 35.7507 66.7992 34.6761 63.9048C33.7284 61.3452 34.0659 57.4113 34.0659 57.4113H41.58Z" fill="#263238"/>
<path d="M52.137 86.574L57.6963 85.3644L57.4911 82.8939L51.4161 84.3384L52.137 86.574Z" fill="#407BFF"/>
<path d="M49.3722 41.8728C49.7664 43.4172 50.1525 44.9751 50.5305 46.5276C50.9085 48.0801 51.2784 49.6353 51.6699 51.1689L51.9642 52.311L52.1154 52.8726L52.1937 53.1426V53.1777V53.1939C52.1937 53.1939 52.1937 53.1696 52.1802 53.1588C52.1598 53.1036 52.1345 53.0502 52.1046 52.9995L52.0641 52.9374L52.0344 52.8969L51.9804 52.8375C51.9237 52.7835 51.9156 52.7916 51.9291 52.8051C51.9582 52.8351 51.9908 52.8614 52.0263 52.8834C52.1451 52.9635 52.2697 53.0348 52.3989 53.0967C52.6905 53.2398 53.0307 53.3667 53.379 53.5071C54.783 54.0282 56.3328 54.471 57.8394 54.9489L57.6018 56.6715C56.7727 56.6811 55.9436 56.6487 55.1178 56.5743C54.2775 56.5051 53.4418 56.3879 52.6149 56.2233C52.1709 56.1371 51.7326 56.0235 51.3027 55.8831C51.0546 55.8038 50.8119 55.7082 50.5764 55.5969C50.4316 55.5295 50.2917 55.4519 50.1579 55.3647C49.9717 55.246 49.8004 55.1055 49.6476 54.9462C49.599 54.8922 49.5531 54.8409 49.4991 54.7707L49.4235 54.6681L49.3479 54.5412C49.2923 54.4462 49.2444 54.3469 49.2048 54.2442L49.1616 54.12L49.0563 53.823L48.8538 53.2344C48.7215 52.8429 48.5838 52.4514 48.4731 52.0626C47.9844 50.502 47.5389 48.9495 47.1231 47.3862C46.7073 45.8229 46.3131 44.2623 45.9513 42.6801L49.3722 41.8728Z" fill="#FFC3BD"/>
<path d="M45.576 40.0044C47.0583 38.352 49.4073 39.5076 50.3982 43.2065C50.8788 45.0047 50.7276 45.9443 50.7276 45.9443L45.6138 47.5211C44.5149 45.0911 43.5591 42.2561 45.576 40.0044Z" fill="#407BFF"/>
<g opacity="0.2">
<path opacity="0.2" d="M45.576 40.0044C47.0583 38.352 49.4073 39.5076 50.3982 43.2065C50.8788 45.0047 50.7276 45.9443 50.7276 45.9443L45.6138 47.5211C44.5149 45.0911 43.5591 42.2561 45.576 40.0044Z" fill="black"/>
</g>
<path d="M60.5205 54.255L60.0615 54.1146C59.7836 54.0306 59.4915 54.0039 59.2029 54.0363L58.2174 54.1524C57.8997 54.2279 57.6015 54.3696 57.3424 54.5683C57.0832 54.7669 56.8689 55.0181 56.7135 55.3053L56.3787 55.9587C56.5461 57.1629 58.9869 56.7687 58.9869 56.7687H61.29L61.2144 55.1325C61.2028 54.9327 61.13 54.7413 61.0059 54.5843C60.8818 54.4273 60.7123 54.3123 60.5205 54.255Z" fill="#FFC3BD"/>
<path d="M62.1 51.6198C62.0345 52.0633 61.8476 52.4801 61.56 52.824C61.3143 53.1831 61.0605 53.5395 60.804 53.904C60.2883 54.6087 59.7618 55.3026 59.184 55.9641C59.1587 55.9927 59.1238 56.0111 59.086 56.0157C59.0481 56.0204 59.0098 56.0111 58.9783 55.9896C58.9468 55.968 58.9242 55.9357 58.9149 55.8987C58.9055 55.8617 58.91 55.8225 58.9275 55.7886C59.3271 55.0056 59.778 54.2604 60.2397 53.5206C60.4719 53.1516 60.7095 52.7853 60.9525 52.4217C61.1623 52.0242 61.477 51.6917 61.8624 51.4605C61.8909 51.443 61.9238 51.4339 61.9572 51.4343C61.9907 51.4346 62.0233 51.4443 62.0515 51.4624C62.0796 51.4804 62.1022 51.506 62.1165 51.5362C62.1308 51.5664 62.1363 51.6001 62.1324 51.6333L62.1 51.6198Z" fill="#263238"/>
<path d="M45.9189 38.4033L43.038 37.5933L39.3309 37.4205C38.7687 37.3941 38.2134 37.5532 37.7505 37.8732C37.2875 38.1932 36.9425 38.6565 36.7686 39.1917C36.0612 41.3517 35.4186 44.4621 34.938 47.154C34.3678 50.5444 34.0779 53.976 34.0713 57.414H47.9034C48.1869 49.7325 49.0914 45.9795 49.626 43.2606C49.7828 42.4551 49.6677 41.6203 49.2987 40.8873C48.9298 40.1543 48.3279 39.5645 47.5875 39.2106L45.9189 38.4033Z" fill="#407BFF"/>
<path d="M42.0552 38.9433C42.4062 39.8451 43.7643 41.7729 45.3438 42.5262C46.2213 41.8917 46.4103 40.5066 46.5426 39.8586L42.0552 38.9433Z" fill="white"/>
<path d="M46.5426 39.8585C46.645 39.5022 46.6023 39.1198 46.4238 38.7948C46.1997 38.4438 46.2564 38.0415 46.4805 37.6284C46.6582 37.2994 46.8808 36.9968 47.142 36.7292L45.3303 34.6098L43.8534 32.8979C43.7265 34.499 43.6023 36.4836 42.3387 37.7256C41.8932 38.1657 41.7987 38.2979 42.0552 38.9432C42.4062 39.845 43.6752 41.1033 45.2412 41.8566C45.5804 41.6272 45.8703 41.3322 46.0938 40.9891C46.3173 40.6459 46.4699 40.2615 46.5426 39.8585Z" fill="#FFC3BD"/>
<path opacity="0.2" d="M46.5858 36.3648L45.5625 34.7043C45.5436 34.7475 45.5193 34.7934 45.495 34.842C45.4029 35.0476 45.3288 35.2608 45.2736 35.4792C45.0873 36.2163 45.7137 37.2693 46.3995 37.7715C46.4292 37.7256 46.4535 37.677 46.4805 37.6284C46.6552 37.3166 46.8624 37.0243 47.0988 36.7563C47.1123 36.7459 47.1268 36.7369 47.142 36.7293L46.5858 36.3648Z" fill="black"/>
<path d="M50.1606 32.3958C50.3982 33.9267 52.5906 29.9874 51.3648 29.1234C49.869 28.065 49.7124 29.4825 50.1606 32.3958Z" fill="#263238"/>
<path d="M43.9209 30.3978C43.7805 32.8845 43.5672 34.329 44.7093 35.7654C46.4265 37.9254 49.7232 37.2126 50.6331 34.8339C51.4431 32.6901 51.543 28.9857 49.1535 27.6735C46.764 26.3613 44.0613 27.9138 43.9209 30.3978Z" fill="#FFC3BD"/>
<path d="M48.8214 28.9047C48.8214 28.9047 50.4117 30.4653 51.5457 29.82C52.6797 29.1747 52.9092 27.5034 51.5457 26.04C50.8896 25.3353 49.896 24.6468 47.9466 24.69C48.1004 24.8398 48.2845 24.9549 48.4866 25.0275C48.4866 25.0275 46.0134 24.6144 44.2908 25.3245C44.4287 25.5321 44.6138 25.7042 44.8308 25.8267C43.1541 25.6998 41.5233 26.3667 42.6708 27.9408C41.1507 28.0893 40.8105 30.0333 41.6205 31.3158C42.4305 32.5983 42.5736 33.5595 43.6563 34.1427C43.6563 32.3958 44.0586 31.9827 44.0586 31.9827C44.8389 31.6506 45.738 29.9874 45.5571 29.1477C47.2257 29.82 49.005 30.0414 48.8214 28.9047Z" fill="#263238"/>
<path d="M43.0704 27.8841C42.5413 27.5069 42.1302 26.9873 41.8851 26.3856C41.6907 27.255 42.5898 28.2459 42.5898 28.2459L43.0704 27.8841Z" fill="#263238"/>
<path d="M42.6789 31.7559C42.6974 32.3253 42.9208 32.8689 43.308 33.2868C43.8237 33.8268 44.5257 33.3678 44.658 32.6739C44.766 32.0502 44.5014 31.0971 43.848 30.8163C43.1946 30.5355 42.66 31.0593 42.6789 31.7559Z" fill="#FFC3BD"/>
<path d="M47.9925 31.6803C47.952 31.8855 48.0249 32.0772 48.1572 32.1096C48.2895 32.142 48.4272 32.0016 48.4731 31.7964C48.519 31.5912 48.4407 31.3995 48.3084 31.3671C48.1761 31.3347 48.033 31.4778 47.9925 31.6803Z" fill="#263238"/>
<path d="M50.2875 32.2284C50.2443 32.4336 50.3199 32.6226 50.4522 32.655C50.5845 32.6874 50.7222 32.547 50.7681 32.3418C50.814 32.1366 50.733 31.9449 50.6007 31.9152C50.4684 31.8855 50.328 32.0232 50.2875 32.2284Z" fill="#263238"/>
<path d="M49.5234 32.2122C49.5831 32.8003 49.7211 33.3778 49.9338 33.9294C49.5558 34.1211 49.0806 33.8322 49.0806 33.8322L49.5234 32.2122Z" fill="#ED847E"/>
<path d="M48.6567 34.9796C48.419 34.9299 48.1937 34.8324 47.9946 34.6932C47.7956 34.554 47.6268 34.3759 47.4984 34.1697C47.4933 34.1625 47.4897 34.1544 47.4879 34.1458C47.4861 34.1371 47.4862 34.1282 47.4881 34.1197C47.4901 34.1111 47.4938 34.103 47.4991 34.096C47.5044 34.0889 47.5111 34.0831 47.5188 34.0789C47.5265 34.0746 47.535 34.0721 47.5438 34.0714C47.5526 34.0707 47.5614 34.0718 47.5697 34.0748C47.578 34.0778 47.5855 34.0825 47.5919 34.0886C47.5982 34.0947 47.6032 34.1021 47.6064 34.1103C47.7495 34.3307 47.9412 34.5154 48.1668 34.6502C48.3924 34.785 48.6459 34.8663 48.9078 34.8878C48.9158 34.8881 48.9236 34.8901 48.9307 34.8936C48.9379 34.8971 48.9442 34.9021 48.9493 34.9082C48.9544 34.9143 48.9581 34.9214 48.9603 34.9291C48.9624 34.9367 48.963 34.9448 48.9618 34.9526C48.9615 34.9607 48.9595 34.9686 48.956 34.9759C48.9526 34.9831 48.9477 34.9896 48.9416 34.9949C48.9355 35.0002 48.9285 35.0042 48.9208 35.0067C48.9131 35.0092 48.905 35.0101 48.897 35.0093C48.8164 35.0042 48.7362 34.9943 48.6567 34.9796Z" fill="#263238"/>
<path d="M47.6901 30.8541C47.6713 30.8465 47.6546 30.8345 47.6415 30.819C47.6211 30.7938 47.6114 30.7616 47.6144 30.7293C47.6174 30.697 47.633 30.6672 47.6577 30.6462C47.8039 30.52 47.9789 30.4319 48.1673 30.3895C48.3557 30.3471 48.5516 30.3518 48.7377 30.4032C48.7685 30.4136 48.7939 30.4358 48.8083 30.4649C48.8228 30.494 48.825 30.5277 48.8146 30.5585C48.8043 30.5892 48.7821 30.6147 48.753 30.6291C48.7238 30.6435 48.6902 30.6458 48.6594 30.6354C48.5128 30.5983 48.3595 30.597 48.2124 30.6318C48.0653 30.6666 47.9287 30.7364 47.8143 30.8352C47.7973 30.8494 47.7767 30.8586 47.7548 30.862C47.7329 30.8653 47.7106 30.8626 47.6901 30.8541Z" fill="#263238"/>
<path d="M50.571 30.9C50.567 30.8804 50.567 30.8602 50.571 30.8406C50.5804 30.8096 50.6013 30.7834 50.6294 30.7673C50.6575 30.7513 50.6907 30.7466 50.7222 30.7542C50.9082 30.8037 51.0792 30.898 51.2204 31.0289C51.3616 31.1597 51.4686 31.3231 51.5322 31.5048C51.5367 31.5202 51.5382 31.5364 51.5364 31.5523C51.5346 31.5683 51.5297 31.5838 51.5219 31.5978C51.5141 31.6119 51.5036 31.6243 51.491 31.6343C51.4784 31.6442 51.464 31.6516 51.4485 31.656C51.4331 31.6605 51.4169 31.6619 51.4009 31.6602C51.385 31.6584 51.3695 31.6535 51.3554 31.6457C51.3414 31.6379 51.329 31.6274 51.319 31.6148C51.309 31.6022 51.3016 31.5877 51.2973 31.5723C51.2453 31.4302 51.1594 31.3029 51.0469 31.2017C50.9344 31.1005 50.7988 31.0284 50.652 30.9918C50.632 30.9843 50.6141 30.972 50.6 30.956C50.5858 30.94 50.5759 30.9208 50.571 30.9Z" fill="#263238"/>
<path d="M39.9087 41.1276C39.3903 42.6072 38.8719 44.1489 38.4102 45.6609C38.1753 46.4169 37.962 47.1756 37.7703 47.9235C37.5845 48.6418 37.4403 49.3702 37.3383 50.1051C37.3383 50.1861 37.3167 50.2752 37.314 50.3535V50.4723C37.314 50.5101 37.314 50.5668 37.314 50.5479C37.314 50.529 37.2924 50.5641 37.314 50.6208C37.3825 50.8271 37.4938 51.0167 37.6407 51.177C38.1045 51.6904 38.6306 52.1439 39.2067 52.527C40.5069 53.4035 41.8645 54.1919 43.2702 54.8868L42.6924 56.55C41.8557 56.3674 41.0307 56.1348 40.2219 55.8534C39.3978 55.571 38.5933 55.2346 37.8135 54.8463C36.9584 54.4291 36.1674 53.8918 35.4645 53.2506C35.0179 52.839 34.6581 52.3424 34.4061 51.7899C34.2489 51.4349 34.1574 51.0543 34.1361 50.6667C34.1361 50.5452 34.1361 50.502 34.1361 50.4372V50.2482C34.1361 50.1213 34.1361 50.0052 34.1361 49.8837C34.1826 48.9847 34.2954 48.0903 34.4736 47.208C34.6356 46.3548 34.8381 45.5286 35.0568 44.7078C35.4949 43.0775 36.0185 41.4715 36.6255 39.8964L39.9087 41.1276Z" fill="#FFC3BD"/>
<path d="M39.15 37.4043C41.7906 37.38 42.2901 39.4347 40.8537 42.6909C40.3041 43.8675 39.6326 44.9833 38.8503 46.02L34.4844 43.7007C35.0676 41.1006 36.1341 37.4313 39.15 37.4043Z" fill="#407BFF"/>
<path d="M46.44 54.6276L45.4734 54.0876C45.3154 54.0009 45.1338 53.9669 44.955 53.9904L43.794 54.1524C43.0137 54.2334 42.444 54.8301 42.0201 55.3485L41.526 55.9533C41.5017 57.1737 44.5851 56.8875 44.5851 56.8875L47.2851 56.8524L47.2014 55.7886C47.1801 55.5473 47.0994 55.315 46.9666 55.1125C46.8337 54.9099 46.6528 54.7433 46.44 54.6276Z" fill="#FFC3BD"/>
<path d="M104.042 56.2503H30.9555V59.6712H104.042V56.2503Z" fill="#407BFF"/>
<path opacity="0.3" d="M54.6615 56.2503H30.9555V59.6712H54.6615V56.2503Z" fill="white"/>
<path d="M32.913 59.6712H31.7952V97.3848H32.913V59.6712Z" fill="#407BFF"/>
<path opacity="0.7" d="M32.913 59.6712H31.7952V97.3848H32.913V59.6712Z" fill="white"/>
<path d="M53.8245 59.6712H52.7067V97.3848H53.8245V59.6712Z" fill="#407BFF"/>
<path opacity="0.7" d="M53.8245 59.6712H52.7067V97.3848H53.8245V59.6712Z" fill="white"/>
<path d="M82.2933 59.6712H81.1755V97.3848H82.2933V59.6712Z" fill="#407BFF"/>
<path opacity="0.7" d="M82.2933 59.6712H81.1755V97.3848H82.2933V59.6712Z" fill="white"/>
<path d="M103.205 59.6712H102.087V97.3848H103.205V59.6712Z" fill="#407BFF"/>
<path opacity="0.7" d="M103.205 59.6712H102.087V97.3848H103.205V59.6712Z" fill="white"/>
<path d="M96.12 41.1303H76.14C75.7976 41.1426 75.4695 41.2709 75.2095 41.4941C74.9495 41.7173 74.773 42.0222 74.709 42.3588L72.6246 55.0191C72.5927 55.17 72.5954 55.3262 72.6326 55.4759C72.6697 55.6256 72.7403 55.7649 72.8391 55.8834C72.9378 56.0019 73.0622 56.0965 73.2027 56.1601C73.3433 56.2236 73.4964 56.2544 73.6506 56.2503H93.6306C93.9739 56.2385 94.3029 56.1101 94.5635 55.8863C94.8241 55.6625 95.0007 55.3566 95.0643 55.0191L97.1487 42.3588C97.1807 42.2078 97.178 42.0515 97.1407 41.9017C97.1034 41.7519 97.0325 41.6125 96.9334 41.4942C96.8343 41.3758 96.7095 41.2815 96.5686 41.2185C96.4277 41.1555 96.2743 41.1253 96.12 41.1303Z" fill="#263238"/>
<path d="M83.4327 55.4241H64.6218C64.498 55.4241 64.3977 55.5244 64.3977 55.6482V56.0262C64.3977 56.1499 64.498 56.2503 64.6218 56.2503H83.4327C83.5565 56.2503 83.6568 56.1499 83.6568 56.0262V55.6482C83.6568 55.5244 83.5565 55.4241 83.4327 55.4241Z" fill="#263238"/>
<path opacity="0.2" d="M96.12 41.1303H76.5774C76.2349 41.1426 75.9069 41.2709 75.6469 41.4941C75.3869 41.7173 75.2104 42.0222 75.1464 42.3588L73.062 55.0191C73.0295 55.1701 73.0319 55.3265 73.0688 55.4764C73.1058 55.6263 73.1763 55.7659 73.2752 55.8845C73.3741 56.0032 73.4986 56.0977 73.6394 56.1611C73.7802 56.2245 73.9336 56.255 74.088 56.2503H93.6171C93.9604 56.2385 94.2894 56.1101 94.55 55.8863C94.8106 55.6625 94.9872 55.3567 95.0508 55.0191L97.1352 42.3588C97.1669 42.2089 97.1644 42.0538 97.1278 41.9051C97.0913 41.7563 97.0216 41.6177 96.924 41.4996C96.8264 41.3815 96.7034 41.287 96.5642 41.223C96.425 41.1591 96.2732 41.1274 96.12 41.1303Z" fill="white"/>
<path d="M44.4042 55.4241C44.4042 55.4241 50.8383 56.3826 53.9433 55.1163C55.3959 55.8156 60.5691 56.1612 62.37 55.4241C61.8138 56.0694 60.507 56.2503 60.507 56.2503H46.9341C45.63 56.2503 44.6337 55.6806 44.4042 55.4241Z" fill="#407BFF"/>
<path opacity="0.7" d="M44.4042 55.4241C44.4042 55.4241 50.8383 56.3826 53.9433 55.1163C55.3959 55.8156 60.5691 56.1612 62.37 55.4241C61.8138 56.0694 60.507 56.2503 60.507 56.2503H46.9341C45.63 56.2503 44.6337 55.6806 44.4042 55.4241Z" fill="white"/>
</g>
<defs>
<clipPath id="clip0_229_284">
<rect width="135" height="104" fill="white"/>
</clipPath>
</defs>
</svg>
