<svg width="184" height="67" viewBox="0 0 184 67" fill="none" xmlns="http://www.w3.org/2000/svg">
<path d="M12.9124 46.9171C13.4583 47.8539 14.0609 48.7382 14.7094 49.5701L17.3852 47.427C16.8405 46.725 16.3339 45.9793 15.8743 45.19C15.3404 44.274 14.8863 43.3341 14.5107 42.3777L11.301 43.583C11.7442 44.7173 12.2792 45.833 12.9124 46.9171V46.9171Z" fill="#13A89E"/>
<path d="M11.0968 43.0382L14.3065 41.8329C13.6351 39.9715 13.253 38.0544 13.1438 36.1395L9.72452 36.2869C9.84679 38.5588 10.2988 40.8329 11.0979 43.0382H11.0968Z" fill="#8CC63F"/>
<path d="M10.6536 28.303L13.9452 29.2244C14.4932 27.3674 15.3066 25.5856 16.3688 23.9437L13.5238 22.0419C12.2628 23.9873 11.2999 26.0988 10.6536 28.303V28.303Z" fill="#FCB040"/>
<path d="M9.10443 35.7312C9.03565 33.4189 9.29766 31.0847 9.90358 28.7855C9.91122 28.7583 9.91886 28.732 9.92541 28.7048L6.77466 27.8226C6.07376 30.4341 5.75279 33.147 5.84013 35.872L9.10443 35.7312V35.7312Z" fill="#F5EE31"/>
<path d="M20.3373 55.472L18.549 58.2057C20.893 59.7014 23.4411 60.8248 26.0962 61.5541L26.9292 58.3902C24.5656 57.7385 22.3515 56.7526 20.3362 55.472H20.3373Z" fill="#283891"/>
<path d="M25.9663 16.0952L24.7566 12.8877C23.6332 13.3288 22.5284 13.8604 21.4541 14.4871C20.5862 14.9937 19.763 15.5472 18.9846 16.1422L21.1026 18.8398C21.7587 18.3409 22.452 17.8758 23.1823 17.4501C24.0896 16.9217 25.0208 16.4708 25.9674 16.0963L25.9663 16.0952Z" fill="#BF1E2E"/>
<path d="M10.5488 43.2445C9.73327 41.0054 9.25727 38.6745 9.12954 36.3131L5.86633 36.4539C6.00826 39.1254 6.54103 41.8002 7.48756 44.3952L10.5499 43.2445H10.5488Z" fill="#39B54A"/>
<path d="M10.0826 28.1425C10.7562 25.8368 11.7497 23.6751 13.027 21.7089L10.313 19.8955C8.82274 22.1816 7.68734 24.6664 6.93185 27.2604L10.0826 28.1425Z" fill="#FFF200"/>
<path d="M18.6222 15.6815C19.4257 15.0679 20.2729 14.5013 21.1594 13.9838C22.2566 13.3441 23.3898 12.7971 24.5492 12.3408L23.3953 9.28064C22.0743 9.79703 20.7762 10.4204 19.512 11.1584C18.489 11.7545 17.5184 12.4074 16.6025 13.1094L18.6233 15.6826L18.6222 15.6815Z" fill="#EF4036"/>
<path d="M27.9522 54.5112C26.0493 53.9806 24.2228 53.1749 22.5382 52.1083L20.6648 54.973C22.6594 56.2383 24.8254 57.1925 27.082 57.817L27.9522 54.5112V54.5112Z" fill="#262262"/>
<path d="M13.8469 21.5572L16.6931 23.459C17.7794 21.8814 19.0993 20.4403 20.6419 19.1968L18.525 16.5002C16.6942 17.9719 15.1286 19.6816 13.8469 21.5572V21.5572Z" fill="#F7941D"/>
<path d="M12.0641 52.4369C13.8131 54.5778 15.8404 56.4021 18.0621 57.8868L19.8504 55.1531C17.8885 53.8376 16.1276 52.2382 14.6177 50.391L12.0652 52.4358L12.0641 52.4369Z" fill="#0F75BC"/>
<path d="M49.836 23.0878L52.4169 20.8082C46.1558 12.3877 35.0495 9.13537 25.3003 12.6813L26.51 15.8899C34.9371 12.8375 44.5171 15.712 49.836 23.0878V23.0878Z" fill="#662D91"/>
<path d="M51.8459 26.5355C56.1451 35.9081 52.7094 47.1933 43.6164 52.4959C38.8684 55.2645 33.46 55.8857 28.5155 54.6597L27.6454 57.9655C33.4425 59.4164 39.7866 58.7002 45.3435 55.4589C56.4072 49.0078 60.3079 34.9189 54.275 23.7286L51.8459 26.5366V26.5355Z" fill="#662D91"/>
<path d="M39.5857 11.4772C44.9603 12.8921 49.5849 16.0286 52.8568 20.4207L55.3154 18.2492C47.9877 8.6212 35.1958 4.94642 23.9389 9.07209L25.094 12.1333C29.7131 10.4433 34.7286 10.1977 39.5857 11.4772V11.4772Z" fill="#92278F"/>
<path d="M60.3953 16.6542L54.6823 23.2559C57.7075 28.7441 58.4935 35.0772 56.8919 41.1593C55.239 47.4357 51.2411 52.6913 45.635 55.9611C40.113 59.1806 33.6816 60.0911 27.4914 58.5387L26.6584 61.7025C33.4054 63.4034 40.7975 62.5694 47.2825 58.7876C60.2763 51.2109 64.7699 34.6449 57.4815 21.5637L60.3931 16.6542H60.3953Z" fill="#92278F"/>
<path d="M21.3199 30.0727L32.9665 36.9987L71.0113 3.39722L34.9076 45.1223L21.3199 30.0727Z" fill="#25AAE1"/>
<path d="M90.4979 31.1945V54.9546C90.4979 54.9546 83.8525 54.9546 83.8525 51.9802V31.1945H80.1433C76.3178 31.1945 75.7391 28.5294 75.7391 25.8627C75.7391 25.8627 77.593 26.4811 80.7618 26.4811H93.7432C96.9121 26.4811 98.7276 25.8627 98.7276 25.8627C98.7276 28.5278 98.2255 31.1945 94.3617 31.1945H90.4979Z" fill="#1A2E45"/>
<path d="M114.801 42.3988C119.669 45.6059 121.021 50.203 123.881 54.2597C123.881 54.2597 121.525 54.8781 120.597 54.8781C118.974 54.8781 116.733 54.376 115.342 52.1349C113.757 49.6243 111.787 44.7563 107.963 43.0938V54.9546C107.963 54.9546 101.318 54.8383 101.318 51.9802V26.4812H111.016C117.275 26.4812 121.794 28.2585 121.794 33.8215V34.9804C121.794 39.0371 119.284 42.3207 114.801 42.3988ZM107.963 31.1946V38.1875H111.325C114.146 38.1875 115.15 36.9506 115.15 34.4017C115.15 31.8529 113.799 31.1946 111.017 31.1946H107.965H107.963Z" fill="#1A2E45"/>
<path d="M150.656 45.8385C150.656 51.9817 144.861 55.0342 138.332 55.0342C131.803 55.0342 125.93 51.9817 125.93 45.8385V26.0953C125.93 26.0953 132.576 26.0953 132.576 29.0697V45.2583C132.576 48.4654 134.932 50.1646 138.332 50.1646C141.732 50.1646 144.011 48.4654 144.011 45.2583V26.0953C144.011 26.0953 150.656 26.0953 150.656 29.0697V45.8369V45.8385Z" fill="#1A2E45"/>
<path d="M161.939 42.1676V49.8952H175.731C175.731 50.1662 175.655 54.5703 172.139 54.5703H160.278C160.278 54.5703 155.293 54.5703 155.293 51.5959V26.4827H175.731C175.731 26.4827 175.731 31.1961 172.139 31.1961H161.939V37.4557H169.202C173.028 37.4557 174.187 36.8372 174.187 36.8372C174.187 39.5024 173.646 42.1691 169.821 42.1691H161.94L161.939 42.1676Z" fill="#1A2E45"/>
<path d="M82.7213 21.183L83.0121 22.6403C82.4534 22.8914 81.7216 23.0169 80.8154 23.0169C79.4346 23.0169 78.3508 22.6419 77.5639 21.8902C76.7771 21.1401 76.3836 20.1435 76.3836 18.9005C76.3836 17.5886 76.8123 16.5384 77.6711 15.7485C78.5299 14.9601 79.6336 14.5652 80.9868 14.5652C81.8977 14.5652 82.6065 14.6907 83.1116 14.9418L82.7228 16.4236C82.2161 16.2047 81.6665 16.096 81.071 16.096C80.249 16.096 79.5923 16.3348 79.1009 16.8125C78.6095 17.2901 78.363 17.9499 78.363 18.7918C78.363 19.6338 78.6049 20.2645 79.0886 20.7436C79.5724 21.2243 80.2367 21.4631 81.0833 21.4631C81.6941 21.4631 82.2406 21.3697 82.7228 21.183H82.7213Z" fill="#1A2E45"/>
<path d="M84.2766 22.8838V14.7964C85.0497 14.6831 85.9161 14.6265 86.876 14.6265C88.0731 14.6265 88.9441 14.8699 89.486 15.3551C90.0279 15.8404 90.2989 16.4558 90.2989 17.1998C90.2989 18.1106 89.9881 18.8072 89.3666 19.2909C88.7451 19.7747 87.8909 20.0165 86.8025 20.0165C86.5882 20.0165 86.3647 19.9997 86.135 19.9675V22.8822H84.2766V22.8838ZM86.135 16.1083V18.5255C86.2682 18.5576 86.4871 18.5745 86.7902 18.5745C87.3 18.5745 87.7026 18.4566 87.998 18.2224C88.2935 17.9866 88.4405 17.6636 88.4405 17.2503C88.4405 16.8707 88.3088 16.5752 88.0455 16.364C87.7822 16.1542 87.4117 16.0486 86.9341 16.0486C86.5545 16.0486 86.2866 16.0685 86.1335 16.1098L86.135 16.1083Z" fill="#1A2E45"/>
<path d="M93.1646 22.8838V16.266H90.8699V14.7H97.379V16.266H95.0475V22.8838H93.1661H93.1646Z" fill="#1A2E45"/>
<path d="M98.374 14.7H100.257V22.8838H98.374V14.7Z" fill="#1A2E45"/>
<path d="M103.547 22.8838V16.266H101.252V14.7H107.761V16.266H105.43V22.8838H103.548H103.547Z" fill="#1A2E45"/>
</svg>
