<svg width="67" height="60" viewBox="0 0 67 60" fill="none" xmlns="http://www.w3.org/2000/svg">
<path d="M7.9124 43.9171C8.45827 44.8539 9.06091 45.7382 9.7094 46.5701L12.3852 44.427C11.8405 43.725 11.3339 42.9793 10.8743 42.19C10.3404 41.274 9.88626 40.3341 9.5107 39.3777L6.30099 40.583C6.74424 41.7173 7.27919 42.833 7.9124 43.9171Z" fill="#13A89E"/>
<path d="M6.09683 40.0382L9.30654 38.8329C8.63512 36.9715 8.25301 35.0544 8.14384 33.1395L4.72452 33.2869C4.84679 35.5588 5.29877 37.8329 6.09792 40.0382H6.09683Z" fill="#8CC63F"/>
<path d="M5.65359 25.303L8.94518 26.2244C9.49323 24.3674 10.3066 22.5856 11.3688 20.9437L8.52377 19.0419C7.26281 20.9873 6.2999 23.0988 5.65359 25.303Z" fill="#FCB040"/>
<path d="M4.10443 32.7312C4.03565 30.4189 4.29766 28.0847 4.90358 25.7855C4.91122 25.7583 4.91886 25.732 4.92541 25.7048L1.77466 24.8226C1.07376 27.4341 0.752788 30.147 0.840127 32.872L4.10443 32.7312Z" fill="#F5EE31"/>
<path d="M15.3373 52.472L13.549 55.2057C15.893 56.7014 18.4411 57.8248 21.0962 58.5541L21.9292 55.3902C19.5656 54.7385 17.3515 53.7526 15.3362 52.472H15.3373Z" fill="#283891"/>
<path d="M20.9663 13.0952L19.7566 9.8877C18.6332 10.3288 17.5284 10.8604 16.4541 11.4871C15.5862 11.9937 14.763 12.5472 13.9846 13.1422L16.1026 15.8398C16.7587 15.3409 17.452 14.8758 18.1823 14.4501C19.0896 13.9217 20.0208 13.4708 20.9674 13.0963L20.9663 13.0952Z" fill="#BF1E2E"/>
<path d="M5.54879 40.2445C4.73327 38.0054 4.25727 35.6745 4.12954 33.3131L0.866333 33.4539C1.00826 36.1254 1.54103 38.8002 2.48756 41.3952L5.54989 40.2445H5.54879Z" fill="#39B54A"/>
<path d="M5.08261 25.1425C5.75621 22.8368 6.74969 20.6751 8.02702 18.7089L5.31296 16.8955C3.82274 19.1816 2.68734 21.6664 1.93185 24.2604L5.08261 25.1425Z" fill="#FFF200"/>
<path d="M13.6222 12.6815C14.4257 12.0679 15.2729 11.5013 16.1594 10.9838C17.2566 10.3441 18.3898 9.79712 19.5492 9.34078L18.3953 6.28064C17.0743 6.79703 15.7762 7.42041 14.512 8.15843C13.489 8.75451 12.5184 9.40737 11.6025 10.1094L13.6233 12.6826L13.6222 12.6815Z" fill="#EF4036"/>
<path d="M22.9522 51.5112C21.0493 50.9806 19.2228 50.1749 17.5382 49.1083L15.6648 51.973C17.6594 53.2383 19.8254 54.1925 22.082 54.817L22.9522 51.5112Z" fill="#262262"/>
<path d="M8.84692 18.5572L11.6931 20.459C12.7794 18.8814 14.0993 17.4403 15.6419 16.1968L13.525 13.5002C11.6942 14.9719 10.1286 16.6816 8.84692 18.5572Z" fill="#F7941D"/>
<path d="M7.06412 49.4369C8.81308 51.5778 10.8404 53.4021 13.0621 54.8868L14.8504 52.1531C12.8885 50.8376 11.1276 49.2382 9.61769 47.391L7.06521 49.4358L7.06412 49.4369Z" fill="#0F75BC"/>
<path d="M44.836 20.0878L47.4169 17.8082C41.1558 9.38766 30.0495 6.13537 20.3003 9.68133L21.51 12.8899C29.9371 9.83745 39.5171 12.712 44.836 20.0878Z" fill="#662D91"/>
<path d="M46.8459 23.5355C51.1451 32.9081 47.7094 44.1933 38.6164 49.4959C33.8684 52.2645 28.46 52.8857 23.5155 51.6597L22.6454 54.9655C28.4425 56.4164 34.7866 55.7002 40.3435 52.4589C51.4072 46.0078 55.3079 31.9189 49.275 20.7286L46.8459 23.5366V23.5355Z" fill="#662D91"/>
<path d="M34.5857 8.47718C39.9603 9.89207 44.5849 13.0286 47.8568 17.4207L50.3154 15.2492C42.9877 5.6212 30.1958 1.94642 18.9389 6.07209L20.094 9.13332C24.7131 7.44331 29.7286 7.19767 34.5857 8.47718Z" fill="#92278F"/>
<path d="M55.3953 13.6542L49.6823 20.2559C52.7075 25.7441 53.4935 32.0772 51.8919 38.1593C50.239 44.4357 46.2411 49.6913 40.635 52.9611C35.113 56.1806 28.6816 57.0911 22.4914 55.5387L21.6584 58.7025C28.4054 60.4034 35.7975 59.5694 42.2825 55.7876C55.2763 48.2109 59.7699 31.6449 52.4815 18.5637L55.3931 13.6542H55.3953Z" fill="#92278F"/>
<path d="M16.3199 27.0727L27.9665 33.9987L66.0113 0.397217L29.9076 42.1223L16.3199 27.0727Z" fill="#25AAE1"/>
</svg>
